<?xml version="1.0" encoding="UTF-8" standalone="no"?>
<!-- Created with Inkscape (http://www.inkscape.org/) -->
<svg id="svg3004" xmlns:rdf="http://www.w3.org/1999/02/22-rdf-syntax-ns#" xmlns="http://www.w3.org/2000/svg" xml:space="preserve" viewBox="0 0 235 202.5" version="1.1" xmlns:cc="http://creativecommons.org/ns#" xmlns:dc="http://purl.org/dc/elements/1.1/"><metadata id="metadata3010"><rdf:RDF><cc:Work rdf:about=""><dc:format>image/svg+xml</dc:format><dc:type rdf:resource="http://purl.org/dc/dcmitype/StillImage"/><dc:title/></cc:Work></rdf:RDF></metadata><g id="g3012" transform="matrix(1.25,0,0,-1.25,0,202.5)"><g id="g3014" transform="scale(0.1,0.1)"><path id="path3016" fill-rule="evenodd" fill="#91a6b0" d="m167.42,71.391-7.07-3.3984-7.637-3.1172-7.633-2.5508-8.484-2.2656-8.485-1.4141-8.769-1.4179-9.332-0.5664-9.613-0.2852-8.2036,0.2852-7.918,0.5664-8.1992,0.8515-7.6367,1.4141-7.6367,1.9844-7.6328,1.9843-7.3555,2.5469-7.0703,3.1172-8.1992,3.9648-3.961,2.2696-3.3906,2.2656-3.1133,2.2656-2.5429,2.5508-2.8282,2.832-2.2656,2.2657-1.9766,2.832-1.9804,2.8359-1.4141,2.8321-1.4141,2.832-0.84766,3.1169-0.5664,3.117-0.56641,3.399,0,6.801,0.56641,3.398,0.5664,3.117,0.84766,3.114,1.4141,3.117,1.4141,3.117,1.9804,2.832,1.9766,2.832,2.2656,2.27,2.8282,2.832,2.5429,2.265,3.1133,2.551,3.3906,2.266,3.961,2.265,8.1992,3.969,7.0703,3.113,7.3555,2.551,7.6328,1.984,7.6367,1.981,7.6367,1.418,8.1992,0.851,7.918,0.567,8.2036,0.281,9.332-0.281,9.332-0.567,8.765-1.418,8.485-1.699,8.203-1.984,7.918-2.551,7.351-3.113,7.356-3.403-20.364-11.332-4.808,2.836-5.09,2.266-5.371,1.98-5.656,1.704-5.942,1.132-6.218,0.848-6.508,0.566-6.785,0.286-5.3755-0.286-5.6562-0.281-5.0899-0.851-5.6562-1.133-5.0899-1.414-5.0898-1.703-5.0898-2.266-4.8086-2.266-5.3711-3.117-2.2657-1.699-2.2617-1.418-1.9804-1.699-1.6954-1.699-1.9804-1.985-1.1289-1.98-1.6992-1.985-1.129-1.984-0.8476-2.266-0.5664-2.265-0.8477-1.985-0.5664-2.265-0.2851-2.266,0-5.098,0.2851-2.269,0.5664-2.266,0.8477-1.984,0.5664-2.266,0.8476-2.2653,1.129-1.6992,1.414-1.9844,1.4141-1.9805,1.6992-1.7031,1.6953-1.9805,2.2617-1.4179,2.2617-1.6993,2.2657-1.4179,5.3711-3.1133,4.5234-2.2695,5.0938-1.9805,4.8046-1.6992,5.375-1.418,5.0899-0.8516,5.6562-0.8476,5.6563-0.2852,5.6567-0.2812,6.503,0.2812,6.223,0.5664,5.938,0.8516,5.937,1.4141,5.942,1.7031,5.089,2.2656,5.657,2.5508,5.089,2.832,20.645-12.75zm196.83,40.797,0-3.403-0.566-3.398-0.563-2.832-0.566-3.1175-1.414-2.832-1.133-3.1172-1.981-2.832-1.414-2.8321-2.261-2.2695-2.262-2.832-2.547-2.5508-2.828-2.2656-3.109-2.5469-3.395-2.2696-7.352-3.9648-6.785-3.1172-6.789-2.832-7.07-2.2656-7.637-1.9844-7.351-1.418-7.637-1.1328-7.918-0.5664-8.199-0.2813-7.918,0.2813-7.918,0.5664-7.637,1.1328-7.355,1.418-7.352,1.9844-7.07,2.2656-6.785,2.832-6.789,3.1172-7.637,3.9648-3.391,2.2696-3.113,2.5469-2.543,2.2656-2.547,2.5508-2.543,2.832-1.98,2.2695-1.7,2.8321-1.976,2.832-1.133,3.1172-1.129,2.832-0.851,3.1175-0.563,2.832-0.566,3.398,0,6.801,0.566,3.398,0.563,2.836,0.851,3.114,1.129,3.117,1.133,2.832,1.976,2.836,1.7,2.832,1.98,2.551,2.543,2.546,2.547,2.551,2.543,2.266,3.113,2.551,3.391,2.265,7.637,3.969,6.789,3.113,6.785,2.836,7.07,2.266,7.352,1.98,7.355,1.418,7.637,1.133,7.918,0.567,7.918,0.285,8.199-0.285,7.637-0.567,7.636-1.133,7.352-1.418,7.637-1.98,7.07-2.266,6.785-2.836,6.789-3.113,7.352-3.969,3.394-2.265,3.11-2.551,2.828-2.266,2.828-2.551,2.262-2.546,1.98-2.551,1.695-2.832,1.981-2.836,1.133-2.832,1.414-3.117,0.566-3.114,0.563-2.836,0.566-3.398,0-3.398zm-29.976,0,0,2.546-0.282,2.27-0.285,2.266-0.566,2.265-0.563,1.985-1.133,2.265-1.132,1.985-0.848,2.265-1.695,1.985-1.414,1.699-1.696,1.98-1.699,1.418-2.262,1.699-1.98,1.7-2.262,1.699-2.547,1.418-4.238,2.265-4.527,2.266-5.09,1.703-4.809,1.414-5.09,1.133-5.656,0.852-5.371,0.281-5.656,0.285-5.656-0.285-5.375-0.281-5.372-0.852-4.808-1.133-5.09-1.414-4.809-1.984-4.808-1.985-4.242-2.55-4.524-3.114-2.262-1.699-2.261-1.418-1.699-1.984-1.696-1.699-1.414-1.985-1.133-1.98-1.414-1.985-0.847-1.984-0.848-1.98-0.566-2.266-0.848-1.984-0.281-2.266-0.286-2.27,0-5.097,0.286-2.266,0.281-2.266,0.848-1.984,0.566-2.266,0.848-2.2652,0.847-1.7031,1.414-1.9804,1.133-1.9844,1.414-1.9844,1.696-1.6992,1.699-1.6992,2.261-1.418,2.262-1.6992,1.981-1.6992,2.543-1.4141,4.242-2.2695,4.808-2.2657,4.524-1.6992,5.094-1.4179,5.089-1.1329,5.372-0.8476,5.375-0.2852,5.656-0.2812,5.656,0.2812,5.371,0.2852,5.375,0.8476,5.371,1.1329,4.809,1.4179,4.523,1.6992,4.809,2.2657,4.523,2.2695,4.809,3.1133,1.98,1.6992,2.262,1.418,1.699,1.6992,1.696,1.6992,1.414,1.9844,1.695,1.9844,0.848,1.9804,1.132,1.7031,1.133,2.2652,0.563,2.266,0.566,1.984,0.285,2.266,0.282,2.266,0,2.551zm185.23-56.094-39.875,0,0,9.6328,5.09,7.9297,0,60.91-0.281,1.418,0,1.133-0.567,1.133-0.281,1.133-0.567,1.133-0.847,1.132-0.567,1.133-0.847,1.137-0.852,1.133-1.414,0.847-1.129,1.133-1.133,0.852-1.414,0.847-3.109,1.704-2.262,1.132-2.828,1.133-2.828,0.848-3.113,0.285-3.11,0.566-3.109,0.567-3.113,0.285-6.504,0-3.11-0.57-2.546-0.282-2.829-0.566-2.828-0.852-2.828-1.414-2.543-1.132-2.262-1.704-1.414-0.847-1.132-1.133-1.414-0.852-1.133-1.132-0.848-0.848-0.848-1.137-0.847-1.133-0.567-1.132-0.847-1.133-0.282-1.133-0.566-1.133-0.285-1.133-0.563-1.418,0-1.132-0.285-1.414,0-58.364,4.809-7.9297,0-9.6328-39.875,0,0,9.6328,5.09,7.9297,0,77.059-5.09,7.933,0,9.348,35.066,0,0-9.633,4.524,2.551,4.527,2.266,5.09,1.984,5.09,1.418,5.375,1.414,5.371,0.852,5.941,0.281,6.219,0.285,5.09,0,5.375-0.566,5.09-0.567,4.523-1.133,4.527-1.136,4.809-1.699,4.238-1.7,3.961-2.265,4.809-2.832,1.98-1.418,1.977-1.418,1.699-1.414,1.695-1.7,1.414-1.699,1.696-1.703,0.851-1.98,1.129-1.7,1.133-1.984,0.566-1.984,0.563-2.266,0.285-1.699,0.281-2.266,0-60.629,4.809-7.9297,0-9.6328zm155.26,0-40.16,0,0,9.6328,5.375,7.9297,0,60.91-0.282,1.418,0,1.133-0.851,1.133-0.281,1.133-0.567,1.133-0.566,1.132-0.563,1.133-1.133,1.137-0.847,1.133-1.133,0.847-1.414,1.133-1.129,0.852-1.133,0.847-3.109,1.704-2.547,1.132-2.828,1.133-2.828,0.848-3.11,0.285-3.113,0.566-2.824,0.567-3.114,0.285-6.503,0-3.11-0.57-2.828-0.282-2.828-0.566-2.828-0.852-2.828-1.414-2.262-1.132-2.547-1.704-1.133-0.847-1.414-1.133-1.129-0.852-1.132-1.132-1.129-0.848-0.848-1.137-0.566-1.133-0.567-1.132-1.133-1.133-0.281-1.133-0.566-1.133-0.282-1.133-0.285-1.418,0-1.132-0.281-1.414,0-58.364,4.523-7.9297,0-9.6328-39.875,0,0,9.6328,5.375,7.9297,0,77.059-5.375,7.933,0,9.348,35.352,0,0-9.633,4.242,2.551,4.524,2.266,5.089,1.984,5.094,1.418,5.371,1.414,5.657,0.852,5.656,0.281,6.222,0.285,5.372,0,5.089-0.566,5.094-0.567,4.524-1.133,4.808-1.136,4.524-1.699,4.242-1.7,4.523-2.265,4.528-2.832,2.261-1.418,1.696-1.418,1.98-1.414,1.414-1.7,1.695-1.699,1.415-1.703,0.847-1.98,1.414-1.7,0.852-1.984,0.562-1.984,0.567-2.266,0.566-1.699,0.281-2.266,0-60.629,4.528-7.9297,0-9.6328zm177.6,56.375-134.89,0,0-3.965,0.562-3.399,0.567-3.117,1.414-3.1169,1.133-2.832,1.414-2.8321,1.98-2.8359,2.262-2.5469,2.262-2.2695,2.828-2.2656,3.109-2.2657,3.395-1.9843,3.675-1.9805,3.961-1.9844,4.243-1.6992,4.523-1.418,3.395-1.1328,3.394-0.5664,3.109-0.8476,3.11-0.5704,3.113-0.5664,2.828-0.2812,2.543-0.2852,5.656,0,2.829,0.2852,3.109,0.2812,3.113,0.5664,3.11,0.5704,3.113,0.8476,3.39,0.5664,3.395,1.1328,6.504,2.2657,2.828,1.1367,2.828,1.414,2.547,1.1329,2.543,1.4179,2.262,1.6992,2.265,1.418,17.532-12.184-5.938-3.6836-6.789-3.1133-7.633-2.8359-7.636-2.2656-8.204-1.6992-8.765-1.1329-9.332-0.8515-9.899-0.2813-8.484,0.2813-8.484,0.5664-7.633,0.8516-7.637,1.414-7.352,1.9844-7.07,2.2656-6.504,2.5508-5.941,3.1172-3.957,1.9844-3.113,1.9804-3.391,2.2657-2.547,2.2695-2.828,2.5469-2.262,2.5507-2.547,2.8321-1.695,2.8359-1.98,2.5469-1.129,3.1172-1.7,3.1172-0.847,3.1171-0.848,3.3982-0.285,3.117-0.563,3.68,0,7.086,0.282,3.113,0.566,3.118,0.566,3.117,0.848,2.832,1.414,3.117,1.414,2.832,1.696,2.832,1.414,2.27,2.261,2.832,1.981,2.55,2.547,2.266,2.543,2.551,2.828,2.265,3.113,2.266,3.109,1.699,5.657,3.399,6.504,3.117,6.504,2.551,6.503,2.265,7.071,1.418,7.07,1.414,7.637,0.567,7.351,0.285,7.637-0.285,7.352-0.567,7.07-1.414,6.789-1.418,7.066-2.265,6.223-2.551,6.223-3.117,6.222-3.399,6.219-4.25,2.828-2.265,2.828-2.266,2.266-2.551,2.262-2.551,1.976-2.546,1.699-2.551,1.696-2.551,1.133-2.832,1.129-3.117,1.132-2.832,0.567-3.117,0.566-3.118,0.281-3.113,0-3.402zm-28.281,11.898-1.129,2.551-1.133,2.551-1.695,2.551-1.414,2.265-1.98,2.266-1.981,1.984-2.543,2.266-2.547,1.98-3.961,2.836-4.238,2.547-4.809,1.984-4.527,1.7-4.805,1.418-5.375,0.566-5.371,0.566-5.375,0.282-5.656-0.282-5.09-0.566-5.375-0.566-4.804-1.418-4.809-1.981-4.523-1.984-3.961-2.551-4.243-3.117-2.261-1.981-2.262-2.265-1.981-1.985-1.695-2.265-1.699-2.27-1.129-2.265-1.133-2.266-1.133-2.551,104.64,0zm207.86-52.976-7.07-3.3984-7.92-3.1172-7.64-2.5508-8.48-2.2656-8.486-1.4141-8.766-1.4179-9.051-0.5664-9.613-0.2852-8.484,0.2852-7.918,0.5664-8.203,0.8515-7.633,1.4141-7.637,1.9844-7.351,1.9843-7.637,2.5469-7.071,3.1172-8.203,3.9648-3.675,2.2696-3.391,2.2656-3.113,2.2656-2.828,2.5508-2.829,2.832-2.261,2.2657-1.981,2.832-1.976,2.8359-1.414,2.8321-1.414,2.832-0.852,3.1169-0.563,3.117-0.566,3.399,0,6.801,0.566,3.398,0.563,3.117,0.852,3.114,1.414,3.117,1.414,3.117,1.976,2.832,1.981,2.832,2.261,2.27,2.829,2.832,2.828,2.265,3.113,2.551,3.391,2.266,3.675,2.265,8.203,3.969,7.071,3.113,7.637,2.551,7.351,1.984,7.637,1.981,7.633,1.418,8.203,0.851,7.918,0.567,8.484,0.281,9.051-0.281,9.332-0.567,8.766-1.418,8.487-1.699,8.2-1.984,7.92-2.551,7.35-3.113,7.64-3.403-20.65-11.332-4.81,2.836-4.81,2.266-5.652,1.98-5.656,1.704-5.937,1.132-5.938,0.848-6.508,0.566-6.785,0.286-5.656-0.286-5.656-0.281-5.09-0.851-5.657-1.133-4.808-1.414-5.371-1.703-4.809-2.266-5.09-2.266-5.089-3.117-2.547-1.699-2.262-1.418-1.699-1.699-1.977-1.699-1.98-1.985-1.133-1.98-1.414-1.985-1.414-1.984-0.848-2.266-0.566-2.265-0.563-1.985-0.851-2.265-0.282-2.266,0-5.098,0.282-2.269,0.851-2.266,0.563-1.984,0.566-2.266,0.848-2.2653,1.414-1.6992,1.133-1.9844,1.414-1.9805,1.695-1.7031,1.98-1.9805,1.981-1.4179,2.262-1.6993,2.547-1.4179,5.089-3.1133,4.524-2.2695,5.09-1.9805,4.808-1.6992,5.375-1.418,5.371-0.8516,5.375-0.8476,5.657-0.2852,5.937-0.2812,6.504,0.2812,5.937,0.5664,5.942,0.8516,5.937,1.4141,5.938,1.7031,5.088,2.2656,5.66,2.5508,5.09,2.832,20.93-12.75zm85.97,87.257-35.63,0,0-84.992,4.8-7.9297,0-9.6328-39.87,0,0,9.6328,4.81,7.9297,0,113.04-4.25,7.93,0,9.066,39.31,0,0-9.066-4.8-7.93,0-18.699,35.63,0,0-9.348"/><g id="g3018" transform="scale(0.999117,1.00088)"><path id="path3020" stroke-linejoin="miter" d="m167.28,71.328-7.076-3.3954-7.644-3.1144-7.643-2.5486-8.492-2.2636-8.492-1.4128-8.773-1.4167-9.34-0.5659-9.626-0.2849-8.2066,0.2849-7.925,0.5659-8.2103,0.8508-7.6396,1.4128-7.6435,1.9826-7.6434,1.9826-7.3581,2.5447-7.0766,3.1144-8.2103,3.9613-3.9606,2.2676-3.3975,2.2636-2.8306,2.2636-2.5452,2.5486-2.8307,2.8295-2.2676,2.2636-1.9783,2.8295-1.9822,2.8335-1.4153,2.8295-1.4153,3.1145-0.84841,3.1102-0.5669,3.115-0.56691,3.395,0,6.795,0.56691,3.395,0.5669,3.115,0.84841,3.114,1.4153,3.115,1.4153,3.11,1.9822,2.834,1.9783,2.829,2.2676,2.264,2.8307,2.829,2.5452,2.268,2.8306,2.545,3.3975,2.267,3.9606,2.264,8.2103,3.961,7.0766,3.114,7.3581,2.549,7.6434,1.979,7.6435,1.982,7.6396,1.417,8.2103,0.847,7.925,0.566,8.2066,0.285,9.344-0.285,9.34-0.566,8.774-1.417,8.492-1.697,8.206-1.979,7.925-2.549,7.362-3.114,7.358-3.396-20.377-11.322-4.813,2.83-5.094,2.264-5.38,1.982-5.661,1.698-5.943,1.132-6.228,0.85-6.51,0.566-6.795,0.281-5.376-0.281-5.6612-0.285-5.0944-0.846-5.6612-1.132-5.0944-1.417-5.0943-1.698-5.0982-2.263-4.809-2.268-5.3797-3.11-2.2638-1.698-2.2637-1.417-1.9822-1.698-1.6968-1.697-1.9822-1.983-1.1338-1.982-1.6968-1.979-1.1339-1.983-0.8484-2.263-0.5669-2.264-0.8484-1.983-0.5669-2.263-0.2815-2.268,0-5.093,0.2815-2.264,0.5669-2.263,0.8484-1.983,0.5669-2.264,0.8484-2.2632,1.1339-1.9826,1.4153-1.9826,1.4153-1.9787,1.6968-1.7016,1.7007-1.9788,2.2637-1.4167,2.2637-1.6977,2.2638-1.4167,5.3797-3.1106,4.5275-2.2675,5.0943-1.9787,4.8128-1.6977,5.3798-1.4167,5.0943-0.8509,5.6613-0.8469,5.6612-0.2849,5.6575-0.281,6.513,0.281,6.225,0.5659,5.946,0.8509,5.943,1.4128,5.943,1.7016,5.094,2.2636,5.661,2.5485,5.099,2.8296,20.662-12.739z" stroke="#91a6b0" stroke-linecap="butt" stroke-miterlimit="199.112" stroke-dasharray="none" stroke-width="7.35626" fill="none"/></g><g id="g3022" transform="scale(0.999117,1.00088)"><path id="path3024" stroke-linejoin="miter" d="m364.29,112.37,0-3.396-0.567-3.395-0.567-2.834-0.567-3.1103-1.415-3.1145-1.13-3.1144-1.983-2.8295-1.415-2.8296-2.264-2.2675-2.263-2.8295-2.549-2.5486-2.831-2.2636-3.112-2.5446-3.398-2.2676-7.358-3.9613-6.795-3.1144-6.791-2.8296-7.077-2.2636-7.643-1.9826-7.358-1.4167-7.644-1.1318-7.925-0.566-8.21-0.281-7.925,0.281-7.925,0.566-7.643,1.1318-7.358,1.4167-7.358,1.9826-7.077,2.2636-6.795,2.8296-6.791,3.1144-7.644,3.9613-3.397,2.2676-3.112,2.5446-2.549,2.2636-2.546,2.5486-2.549,2.8295-1.982,2.2675-1.697,2.8296-1.982,2.8295-1.13,3.1144-1.134,3.1145-0.848,3.1103-0.567,2.834-0.567,3.395,0,6.795,0.567,3.395,0.567,2.83,0.848,3.114,1.134,3.115,1.13,2.829,1.982,2.83,1.697,2.829,1.982,2.549,2.549,2.548,2.546,2.549,2.549,2.264,3.112,2.548,3.397,2.264,7.644,3.961,6.791,3.114,6.795,2.83,7.077,2.264,7.358,1.982,7.358,1.417,7.643,1.132,7.925,0.566,7.925,0.281,8.21-0.281,7.644-0.566,7.64-1.132,7.361-1.417,7.64-1.982,7.077-2.264,6.795-2.83,6.791-3.114,7.362-3.961,3.393-2.264,3.116-2.548,2.831-2.264,2.831-2.549,2.263-2.548,1.983-2.549,1.696-2.829,1.983-2.83,1.13-2.829,1.415-3.115,0.567-3.114,0.567-2.83,0.567-3.395,0-3.399z" stroke="#91a6b0" stroke-linecap="butt" stroke-miterlimit="199.112" stroke-dasharray="none" stroke-width="7.35626" fill="none"/></g><g id="g3026" transform="scale(0.999117,1.00088)"><path id="path3028" stroke-linejoin="miter" d="m334.28,112.37,0,2.548-0.286,2.264-0.281,2.263-0.567,2.268-0.567,1.979-1.13,2.263-1.134,1.983-0.848,2.263-1.697,1.983-1.415,1.698-1.701,1.982-1.697,1.413-2.264,1.702-1.982,1.698-2.264,1.697-2.549,1.417-4.246,2.264-4.527,2.263-5.094,1.698-4.813,1.417-5.095,1.131-5.661,0.847-5.38,0.285-5.661,0.281-5.661-0.281-5.376-0.285-5.38-0.847-4.809-1.131-5.098-1.417-4.809-1.983-4.813-1.978-4.246-2.549-4.527-3.114-2.268-1.698-2.263-1.417-1.697-1.979-1.697-1.697-1.415-1.983-1.134-1.982-1.415-1.979-0.849-1.983-0.848-1.982-0.567-2.264-0.849-1.983-0.285-2.263-0.282-2.264,0-5.093,0.282-2.268,0.285-2.263,0.849-1.983,0.567-2.264,0.848-2.2632,0.849-1.9826,1.415-1.9787,1.134-1.9826,1.415-1.9826,1.697-1.6978,1.697-1.6977,2.263-1.4167,2.268-1.6977,1.978-1.6977,2.549-1.4129,4.246-2.2675,4.813-2.2636,4.528-1.6977,5.094-1.4167,5.094-1.1319,5.38-0.8469,5.376-0.2849,5.661-0.281,5.661,0.281,5.38,0.2849,5.376,0.8469,5.38,1.1319,4.813,1.4167,4.527,1.6977,4.813,2.2636,4.527,2.2675,4.813,3.1106,1.982,1.6977,2.264,1.4167,1.697,1.6977,1.701,1.6978,1.415,1.9826,1.697,1.9826,0.848,1.9787,1.134,1.9826,1.13,2.2632,0.567,2.264,0.567,1.983,0.281,2.263,0.286,2.268,0,2.545z" stroke="#91a6b0" stroke-linecap="butt" stroke-miterlimit="199.112" stroke-dasharray="none" stroke-width="7.35626" fill="none"/></g><g id="g3030" transform="scale(0.999117,1.00088)"><path id="path3032" stroke-linejoin="miter" d="m519.96,56.044-40.192,0,0,9.6243,5.095,7.9227,0,61.142-0.286,1.412,0,1.132-0.563,1.136-0.285,1.132-0.567,1.132-0.848,1.131-0.567,1.132-0.849,1.132-0.848,1.132-1.415,0.851-1.134,1.131-1.13,0.847-1.415,0.851-3.116,1.698-2.264,1.132-2.831,1.131-2.83,0.851-3.113,0.281-3.112,0.566-3.116,0.57-3.112,0.281-6.509,0-3.117-0.566-2.545-0.285-2.83-0.566-2.831-0.847-2.831-1.416-2.549-1.132-2.263-1.698-1.416-0.851-1.13-1.131-1.415-0.847-1.134-1.132-0.848-0.851-0.849-1.132-0.852-1.132-0.563-1.131-0.848-1.132-0.286-1.132-0.567-1.136-0.281-1.132-0.567-1.412,0-1.132-0.282-1.417,0-58.593,4.809-7.9227,0-9.6243-39.906,0,0,9.6243,5.094,7.9227,0,77.276-5.094,7.922,0,9.344,35.097,0,0-9.625,4.528,2.549,4.527,2.264,5.099,1.978,5.094,1.417,5.376,1.417,5.38,0.847,5.942,0.285,6.228,0.281,5.095,0,5.38-0.566,5.094-0.566,4.527-1.132,4.528-1.132,4.813-1.698,4.246-1.697,4.245-2.264,4.813-2.833,1.983-1.413,1.978-1.417,1.701-1.417,1.696-1.697,1.416-1.698,1.696-1.698,0.853-1.982,1.13-1.698,1.134-1.983,0.566-1.978,0.563-2.264,0.286-1.702,0.281-2.263,0-60.857,4.813-7.9227,0-9.6243z" stroke="#91a6b0" stroke-linecap="butt" stroke-miterlimit="199.112" stroke-dasharray="none" stroke-width="7.35626" fill="none"/></g><g id="g3034" transform="scale(0.999117,1.00088)"><path id="path3036" stroke-linejoin="miter" d="m675.36,56.044-40.195,0,0,9.6243,5.379,7.9227,0,61.142-0.281,1.412,0,1.132-0.852,1.136-0.282,1.132-0.567,1.132-0.567,1.131-0.563,1.132-1.134,1.132-0.848,1.132-1.134,0.851-1.415,1.131-1.13,0.847-1.134,0.851-3.112,1.698-2.549,1.132-2.831,1.131-2.83,0.851-3.112,0.281-3.117,0.566-2.826,0.57-3.116,0.281-6.51,0-3.112-0.566-2.831-0.285-2.83-0.566-2.831-0.847-2.831-1.416-2.263-1.132-2.549-1.698-1.134-0.851-1.416-1.131-1.129-0.847-1.134-1.132-1.13-0.851-0.849-1.132-0.566-1.132-0.567-1.131-1.134-1.132-0.282-1.132-0.567-1.136-0.281-1.132-0.285-1.412,0-1.132-0.282-1.417,0-58.593,4.527-7.9227,0-9.6243-39.91,0,0,9.6243,5.38,7.9227,0,77.276-5.38,7.922,0,9.344,35.383,0,0-9.625,4.246,2.549,4.527,2.264,5.095,1.978,5.098,1.417,5.376,1.417,5.661,0.847,5.661,0.285,6.228,0.281,5.376,0,5.095-0.566,5.098-0.566,4.527-1.132,4.813-1.132,4.528-1.698,4.246-1.697,4.527-2.264,4.531-2.833,2.264-1.413,1.697-1.417,1.982-1.417,1.415-1.697,1.697-1.698,1.416-1.698,0.848-1.982,1.415-1.698,0.853-1.983,0.563-1.978,0.566-2.264,0.567-1.702,0.282-2.263,0-60.857,4.531-7.9227,0-9.6243z" stroke="#91a6b0" stroke-linecap="butt" stroke-miterlimit="199.112" stroke-dasharray="none" stroke-width="7.35626" fill="none"/></g><g id="g3038" transform="scale(0.999117,1.00088)"><path id="path3040" stroke-linejoin="miter" d="m853.11,112.65-135.01,0,0-3.965,0.563-3.395,0.567-3.115,1.415-3.1102,1.134-3.1145,1.415-2.8295,1.983-2.8335,2.263-2.5446,2.264-2.2675,2.831-2.2636,3.112-2.2637,3.397-1.9826,3.679-1.9787,3.965-1.9826,4.246-1.6977,4.527-1.4168,3.398-1.1318,3.397-0.5659,3.112-0.8469,3.113-0.5698,3.116-0.5659,2.83-0.281,2.545-0.2849,5.662,0,2.83,0.2849,3.112,0.281,3.116,0.5659,3.113,0.5698,3.116,0.8469,3.393,0.5659,3.398,1.1318,6.509,2.2637,2.831,1.1357,2.831,1.4128,2.549,1.1318,2.545,1.4167,2.264,1.6977,2.267,1.4168,17.547-12.173-5.943-3.6803-6.795-3.1106-7.639-2.8334-7.644-2.2636-8.21-1.6977-8.773-1.1319-9.341-0.8508-9.907-0.281-8.492,0.281-8.492,0.5659-7.639,0.8509-7.644,1.4128-7.358,1.9826-7.076,2.2636-6.51,2.5485-5.947,3.1145-3.96,1.9826-3.116,1.9787-3.394,2.2637-2.549,2.2675-2.831,2.5446-2.263,2.5485-2.549,2.8296-1.697,2.8334-1.982,2.5446-1.13,3.1145-1.701,3.1144-0.848,3.3954-0.849,3.3952-0.285,3.115-0.563,3.68,0,7.076,0.281,3.114,0.567,3.115,0.567,3.11,0.848,2.834,1.416,3.11,1.415,2.834,1.697,2.829,1.415,2.264,2.264,2.829,1.982,2.549,2.549,2.264,2.545,2.548,2.831,2.264,3.116,2.263,3.112,1.702,5.661,3.395,6.51,3.115,6.51,2.544,6.509,2.268,7.077,1.413,7.077,1.416,7.643,0.566,7.358,0.281,7.644-0.281,7.358-0.566,7.076-1.416,6.795-1.413,7.073-2.268,6.228-2.544,6.228-3.115,6.228-3.395,6.225-4.246,2.83-2.264,2.831-2.267,2.268-2.545,2.263-2.549,1.979-2.548,1.7-2.549,1.697-2.544,1.134-2.834,1.13-3.11,1.134-2.834,0.567-3.11,0.566-3.115,0.282-3.114,0-3.396z" stroke="#91a6b0" stroke-linecap="butt" stroke-miterlimit="199.112" stroke-dasharray="none" stroke-width="7.35626" fill="none"/></g><g id="g3042" transform="scale(0.999117,1.00088)"><path id="path3044" stroke-linejoin="miter" d="m824.81,124.54-1.13,2.549-1.134,2.545-1.697,2.548-1.415,2.264-1.982,2.263-1.983,1.983-2.545,2.264-2.549,1.982-3.964,2.83-4.242,2.548-4.813,1.983-4.532,1.698-4.809,1.412-5.379,0.566-5.376,0.566-5.38,0.285-5.661-0.285-5.094-0.566-5.38-0.566-4.809-1.412-4.813-1.983-4.527-1.983-3.965-2.544-4.246-3.115-2.264-1.982-2.263-2.264-1.982-1.983-1.697-2.263-1.701-2.264-1.13-2.263-1.134-2.264-1.134-2.549,104.73,0z" stroke="#91a6b0" stroke-linecap="butt" stroke-miterlimit="199.112" stroke-dasharray="none" stroke-width="7.35626" fill="none"/></g><g id="g3046" transform="scale(0.999117,1.00088)"><path id="path3048" stroke-linejoin="miter" d="m1032.6,71.328-7.08-3.3954-7.92-3.1144-7.65-2.5486-8.49-2.2636-8.49-1.4128-8.774-1.4167-9.059-0.5659-9.625-0.2849-8.207,0.2849-7.925,0.5659-8.21,0.8508-7.64,1.4128-7.643,1.9826-7.358,1.9826-7.644,2.5447-7.076,3.1144-8.211,3.9613-3.679,2.2676-3.393,2.2636-3.116,2.2636-2.831,2.5486-2.831,2.8295-2.263,2.2636-1.982,2.8295-1.979,2.8335-1.415,2.8295-1.415,3.1145-0.853,3.1102-0.563,3.115-0.567,3.395,0,6.795,0.567,3.395,0.563,3.115,0.853,3.114,1.415,3.115,1.415,3.11,1.979,2.834,1.982,2.829,2.263,2.264,2.831,2.829,2.831,2.268,3.116,2.545,3.393,2.267,3.679,2.264,8.211,3.961,7.076,3.114,7.644,2.549,7.358,1.979,7.643,1.982,7.64,1.417,8.21,0.847,7.925,0.566,8.207,0.285,9.058-0.285,9.341-0.566,8.777-1.417,8.492-1.697,8.21-1.979,7.92-2.549,7.36-3.114,7.64-3.396-20.66-11.322-4.81,2.83-4.81,2.264-5.663,1.982-5.661,1.698-5.947,1.132-5.943,0.85-6.509,0.566-6.795,0.281-5.376-0.281-5.661-0.285-5.095-0.846-5.661-1.132-4.813-1.417-5.376-1.698-4.813-2.263-5.094-2.268-5.094-3.11-2.549-1.698-2.264-1.417-1.701-1.698-1.978-1.697-1.982-1.983-1.134-1.982-1.415-1.979-1.416-1.983-0.848-2.263-0.567-2.264-0.563-1.983-0.852-2.263-0.282-2.268,0-5.093,0.282-2.264,0.852-2.263,0.563-1.983,0.567-2.264,0.848-2.2632,1.416-1.9826,1.133-1.9826,1.416-1.9787,1.697-1.7016,1.982-1.9788,1.982-1.4167,2.264-1.6977,2.549-1.4167,5.094-3.1106,4.528-2.2675,5.094-1.9787,4.813-1.6977,5.38-1.4167,5.375-0.8509,5.38-0.8469,5.661-0.2849,5.658-0.281,6.513,0.281,5.943,0.5659,5.943,0.8509,5.946,1.4128,5.943,1.7016,5.09,2.2636,5.67,2.5485,5.09,2.8296,20.95-12.739z" stroke="#91a6b0" stroke-linecap="butt" stroke-miterlimit="199.112" stroke-dasharray="none" stroke-width="7.35626" fill="none"/></g><g id="g3050" transform="scale(0.999117,1.00088)"><path id="path3052" stroke-linejoin="miter" d="m1118.6,158.79-35.66,0,0-85.198,4.81-7.9227,0-9.6243-39.91,0,0,9.6243,4.81,7.9227,0,113.22-4.24,7.926,0,9.059,39.34,0,0-9.059-4.81-7.926,0-18.679,35.66,0,0-9.344z" stroke="#91a6b0" stroke-linecap="butt" stroke-miterlimit="199.112" stroke-dasharray="none" stroke-width="7.35626" fill="none"/></g><path id="path3054" fill-rule="evenodd" fill="#bf9e48" d="m1440,186.98-0.29-7.364-0.56-7.367-0.85-6.801-1.41-7.082-2.27-6.515-2.26-6.797-2.54-6.235-3.11-6.23-3.68-5.949-4.24-5.949-4.53-5.668-4.8-5.383-5.66-5.383-5.66-5.3829-13.29-9.3477-12.73-7.9336-13-7.082-14.14-5.9492-14.14-4.8164-15.27-3.9649-15.56-2.5507-16.12-1.6993-16.96-0.5664-101.53,0,0,15.863,7.35,10.766,0,211.91-7.35,10.766,0,14.73,101.53,0,16.96-0.285,15.84-1.699,15.55-2.551,14.99-3.965,14.42-4.816,14.15-5.95,13.28-7.082,12.73-7.933,13.29-9.629,5.66-5.383,5.66-5.383,4.8-5.382,4.53-5.668,4.24-5.95,3.68-5.949,3.11-6.23,2.54-6.235,2.26-6.801,2.27-6.515,1.41-6.797,0.85-7.367,0.56-6.801,0.29-7.648zm-35.35,0-0.28,6.8-0.57,6.516-0.85,5.949-1.13,6.235-1.98,5.949-1.98,5.949-2.83,5.664-2.83,5.383-3.39,5.383-3.96,5.097-3.96,5.102-4.52,4.816-4.81,4.532-5.37,4.816-5.94,4.535-5.94,4.246-11.6,6.801-11.87,6.234-13.01,5.098-12.73,4.25-13.57,3.398-13.86,2.551-14.71,1.418-14.7,0.567-39.03,0,0-233.44,39.03,0,14.42,0.5664,14.43,1.418,13.85,2.2656,13.57,3.3985,13.02,4.25,12.44,5.1015,12.16,6.2305,11.6,6.5153,11.87,8.785,5.66,4.532,4.81,4.531,4.52,5.102,4.24,4.816,3.68,5.383,3.39,5.383,3.11,5.382,2.55,5.664,2.26,5.95,1.98,5.668,1.13,6.23,0.85,5.949,0.57,6.516,0.28,6.516"/><path id="path3056" fill-rule="evenodd" fill="#91a6b0" d="m1610.3,63.176-35.35,0-1.13,14.73-0.28-0.5665-0.57-0.2812-0.56-1.1328-1.13-0.5664-1.13-1.1367-1.98-1.4141-1.99-1.418-2.26-1.1328-2.26-1.418-4.81-1.9804-4.8-1.6992-5.38-1.1329-5.65-1.1367-6.23-0.5664-14.42,0-8.2,0.5664-7.92,1.1367-7.63,1.4141-7.35,1.6992-7.36,2.2696-7.35,2.832-6.79,3.1172-7.92,3.9648-3.39,2.2656-3.39,2.2657-3.12,2.5508-2.82,2.2656-2.55,2.5508-2.26,2.5507-1.98,2.5469-1.69,2.5508-1.7,3.1169-1.42,2.832-1.13,3.118-0.85,3.117-0.85,3.113-0.28,3.402,0,3.118,0.28,3.398,0.29,2.832,0.56,3.117,1.13,2.832,1.14,2.832,1.13,2.551,1.98,2.832,1.69,2.551,2.26,2.551,2.55,2.546,2.55,2.27,3.11,2.266,3.11,2.265,7.07,3.965,6.5,3.117,6.79,2.551,7.07,2.266,7.07,1.984,7.63,1.414,7.64,0.852,8.2,0.566,8.2,0.285,5.94,0,6.22-0.57,5.94-0.281,5.94-1.133,5.66-1.133,5.93-1.133,5.66-1.699,5.66-1.703-0.57,6.801,35.35,0,0.57-8.782-3.68-7.933,5.66-74.793,4.8-7.9297,0.85-9.0664zm-37.33,25.781-4.8,64.875-3.96,1.699-4.24,0.852-4.25,1.414-4.52,0.566-4.24,0.852-4.81,0.281-5.09,0.567-4.81,0-6.22-0.282-5.94-0.285-5.94-1.133-5.94-0.847-5.65-1.418-5.66-1.7-5.37-2.265-5.38-2.266-5.93-3.117-2.27-1.699-2.54-1.703-2.26-1.7-1.98-1.98-1.42-1.699-1.69-2.27-1.42-1.98-1.13-2.27-0.85-2.265-0.85-2.266-0.56-2.266-0.28-2.265,0-4.817,0.28-2.55,0.56-2.551,0.57-2.547,0.85-2.27,1.41-2.265,0.85-2.266,1.69-2.266,1.7-1.9839,1.98-1.9844,1.7-1.6992,2.26-1.6992,2.55-1.9844,2.54-1.6992,2.83-1.6992,3.11-1.4141,3.11-1.7031,5.94-2.2656,5.66-2.2657,5.65-1.6992,5.94-1.1328,5.66-1.1328,6.22-0.8516,6.22-0.2812,6.5-0.2852,2.55,0,2.26,0.2852,2.27,0.2812,2.26,0,2.26,0.5664,2.26,0.8516,2.55,0.5664,1.98,0.8477,1.98,0.8515,2.26,0.8477,3.96,2.5508,3.96,2.832,3.67,3.4023zm79.19,107.09,0-1.133-0.28-0.851,0.28-0.282-0.28-0.566,0-0.852-0.29-0.566-0.28-0.281-0.57-0.567-0.28-0.566-0.28-0.566-0.57-0.286-0.56-1.132-1.13-0.852-1.13-0.566-1.42-0.567-1.13-0.847-1.41-0.567-1.42,0-1.41-0.285-1.7-0.281-3.11,0-1.7,0.281-1.13,0.285-1.41,0-1.42,0.567-1.41,0.847-1.42,0.567-1.12,0.566-1.42,0.852-0.85,1.132-0.56,0.286-0.29,0.566-0.56,0.566-0.57,0.567-0.28,0.281-0.28,0.566,0,0.852-0.28,0.566-0.29,0.282-0.28,0.851,0,3.684,0.28,0.566,0,0.848,0.29,0.57,0.28,0.281,0.56,0.567,0.28,0.566,0,0.567,0.57,0.285,0.85,1.133,1.13,0.847,1.13,0.567,1.41,0.566,1.14,0.57,1.41,0.567,1.42,0.281,1.13,0,1.69,0.285,2.83,0,1.98-0.285,1.42,0,1.41-0.281,1.41-0.567,1.42-0.57,1.41-0.566,1.13-0.567,1.42-0.847,0.84-1.133,0.57-0.285,0.28-0.567,0.29-0.566,0.84-0.567,0.29-0.281,0.28-0.57,0-0.848,0.28-0.566,0-0.285,0.57-0.848,0-1.418zm14.14-133.15-40.44,0-0.57,9.0664,4.53,8.2149-5.66,74.793-5.94,7.648-0.56,9.067,40.43,0,0.57-9.067-3.96-7.648,5.66-74.793,5.37-8.2149,0.57-9.0664zm56.56,0-40.16,0-0.85,9.0664,4.81,8.2149-10.75,141.65-5.94,5.383-1.13,8.215,39.03,20.965,0.85-8.5-3.39-10.199,11.87-157.52,5.09-8.2149,0.57-9.0664zm150.16,100.01-4.52-7.648,6.5-82.727-0.56,0,0.28-5.664,0-9.0664-0.56-3.9649-0.85-3.9687-1.42-3.6836-1.41-3.6797-1.98-3.4023-2.55-3.3985-2.54-3.1172-3.11-2.832-3.4-3.1172-3.67-2.2656-4.24-2.5508-4.25-2.2656-4.8-2.2656-5.38-1.9844-7.91-2.5469-8.49-2.2695-9.05-1.9805-9.61-1.418-10.18-1.1328-10.75-0.85156-11.6-0.56641-11.87-0.28125-0.57,7.082,4.53,0,5.09,0.2813,10.46,0.8515,10.47,1.418,11.59,1.6992,6.78,1.4141,5.95,1.418,5.93,1.4179,4.81,1.6993,4.24,1.9843,1.7,0.8477,1.7,1.1328,1.69,0.8516,1.42,1.1328,1.41,1.1328,1.13,1.1328,2.55,3.3984,2.26,3.4024,2.26,3.6797,1.7,3.9687,1.13,3.9649,0.57,3.9687,0.56,4.2461,0,4.25-0.56,11.332-4.25-2.2656-4.52-2.2656-4.52-1.6992-5.1-1.1328-5.09-1.1329-5.65-1.1367-5.37,0-6.23-0.2812-5.37,0.2812-5.37,0-4.81,0.8516-5.09,0.8515-5.09,1.1329-4.81,1.6992-4.52,1.414-4.53,1.9844-5.09,2.832-1.98,1.1329-2.26,1.4179-1.7,1.6992-1.98,1.418-1.69,1.6992-1.42,1.6993-1.41,1.6992-0.85,1.9843-1.13,1.6993-1.14,1.9843-0.56,1.9805-0.56,1.9844-0.29,2.2656-0.28,1.9844-4.24,57.512-5.94,7.648-0.57,8.782,40.44,0,0.57-8.782-3.96-7.648,4.24-58.078,0.28-1.1328,0.29-1.418,0.28-1.1328,0.57-1.1328,0.28-1.1328,0.56-1.418,1.14-0.8477,0.56-1.1328,0.85-0.8515,1.41-1.1329,0.85-1.1328,1.42-0.8515,1.41-0.8477,1.13-0.8515,3.39-1.6993,2.83-1.1328,2.83-1.1328,3.11-0.5664,2.83-0.8516,3.39-0.5664,3.12-0.5664,9.33,0,2.83,0.2852,2.54,0.5664,2.83,0.8476,2.54,0.8516,2.83,1.4141,2.54,1.4179,2.83,1.6993,2.55,1.9843,1.98,1.9844,0.85,0.8477,1.13,1.1328,0.56,0.8515,0.85,1.1329,0.29,0.8476,0.56,1.1367,0.28,0.8477,0.29,1.1328,0,3.1172-0.29,1.1328-3.39,56.379-5.94,7.648-0.85,8.782,40.73,0,0.84-8.782"/><g id="g3058" transform="scale(0.999117,1.00088)"><path id="path3060" stroke-linejoin="miter" d="m1611.7,63.12-35.38,0-1.14,14.718-0.28-0.5659-0.57-0.281-0.56-1.1318-1.13-0.5659-1.14-1.1357-1.98-1.4129-1.98-1.4167-2.26-1.1318-2.27-1.4167-4.81-1.9787-4.81-1.6977-5.38-1.1319-5.66-1.1357-6.23-0.5659-14.43,0-8.21,0.5659-7.93,1.1357-7.64,1.4129-7.36,1.6977-7.36,2.2675-7.36,2.8295-6.79,3.1145-7.93,3.9613-3.39,2.2636-3.4,2.2637-3.11,2.5485-2.83,2.2636-2.55,2.5486-2.26,2.5485-1.99,2.5446-1.69,2.8335-1.7,3.1102-1.42,2.834-1.13,3.11-0.85,3.115-0.85,3.114-0.28,3.396,0,3.114,0.28,3.395,0.29,2.834,0.56,3.11,1.13,2.834,1.14,2.829,1.13,2.549,1.98,2.829,1.7,2.549,2.26,2.545,2.55,2.548,2.55,2.264,3.11,2.263,3.11,2.268,7.08,3.961,6.51,3.115,6.79,2.544,7.08,2.268,7.08,1.979,7.64,1.416,7.64,0.847,8.21,0.57,8.21,0.281,5.94,0,6.23-0.566,5.94-0.285,5.95-1.132,5.66-1.131,5.94-1.132,5.66-1.698,5.66-1.698-0.56,6.791,35.38,0,0.57-8.773-3.68-7.923,5.65-75.012,4.82-7.9227,0.85-9.0584z" stroke="#91a6b0" stroke-linecap="butt" stroke-miterlimit="199.112" stroke-dasharray="none" stroke-width="7.35626" fill="none"/></g><g id="g3062" transform="scale(0.999117,1.00088)"><path id="path3064" stroke-linejoin="miter" d="m1574.3,88.878-4.81,65.098-3.96,1.702-4.25,0.847-4.24,1.417-4.53,0.565-4.24,0.847-4.82,0.285-5.09,0.566-4.81,0-6.23-0.285-5.95-0.281-5.94-1.132-5.94-0.85-5.67-1.413-5.66-1.702-5.37-2.263-5.38-2.264-5.95-3.114-2.26-1.698-2.55-1.698-2.26-1.698-1.98-1.982-1.42-1.698-1.7-2.264-1.41-1.982-1.14-2.264-0.84-2.263-0.85-2.264-0.57-2.268-0.28-2.263,0-4.812,0.28-2.545,0.57-2.549,0.56-2.548,0.85-2.264,1.42-2.263,0.85-2.268,1.69-2.264,1.7-1.9782,1.99-1.9827,1.69-1.9826,2.27-1.6977,2.55-1.9826,2.54-1.6978,2.83-1.6977,3.12-1.4128,3.11-1.7016,5.94-2.2636,5.66-2.2637,5.67-1.6977,5.94-1.1318,5.66-1.1318,6.23-0.8508,6.23-0.281,6.51-0.2849,2.54,0,2.27,0.2849,2.26,0.281,2.27,0,2.26,0.5659,2.26,0.8508,2.55,0.5659,1.98,0.8469,1.99,0.8508,2.26,0.8469,3.96,2.5486,3.97,2.8295,3.67,3.3993z" stroke="#91a6b0" stroke-linecap="butt" stroke-miterlimit="199.112" stroke-dasharray="none" stroke-width="7.35626" fill="none"/></g><g id="g3066" transform="scale(0.999117,1.00088)"><path id="path3068" stroke-linejoin="miter" d="m1653.6,196.16,0-1.132-0.28-0.851,0.28-0.285-0.28-0.566,0-0.846-0.29-0.566-0.28-0.285-0.57-0.566-0.28-0.566-0.28-0.566-0.57-0.281-0.56-1.136-1.14-0.847-1.13-0.566-1.41-0.565-1.14-0.851-1.41-0.566-1.42,0-1.41-0.281-1.7-0.285-3.12,0-1.69,0.285-1.14,0.281-1.41,0-1.42,0.566-1.41,0.851-1.42,0.565-1.13,0.566-1.41,0.847-0.85,1.136-0.57,0.281-0.28,0.566-0.57,0.566-0.56,0.566-0.29,0.285-0.28,0.566,0,0.846-0.28,0.566-0.29,0.285-0.28,0.851,0,3.677,0.28,0.565,0,0.851,0.29,0.566,0.28,0.285,0.57,0.566,0.28,0.566,0,0.566,0.56,0.281,0.85,1.132,1.14,0.85,1.13,0.566,1.41,0.566,1.14,0.566,1.41,0.566,1.42,0.285,1.13,0,1.7,0.281,2.83,0,1.98-0.281,1.42,0,1.41-0.285,1.42-0.566,1.41-0.566,1.42-0.566,1.13-0.566,1.41-0.85,0.85-1.132,0.57-0.281,0.28-0.566,0.28-0.566,0.85-0.566,0.29-0.285,0.28-0.566,0-0.851,0.28-0.565,0-0.281,0.57-0.851,0-1.413z" stroke="#91a6b0" stroke-linecap="butt" stroke-miterlimit="199.112" stroke-dasharray="none" stroke-width="7.35626" fill="none"/></g><g id="g3070" transform="scale(0.999117,1.00088)"><path id="path3072" stroke-linejoin="miter" d="m1667.7,62.835-40.48,0-0.56,9.0584,4.53,8.2076-5.66,75.012-5.95,7.642-0.56,9.054,40.47,0,0.57-9.054-3.96-7.642,5.66-75.012,5.37-8.2076,0.57-9.0584z" stroke="#91a6b0" stroke-linecap="butt" stroke-miterlimit="199.112" stroke-dasharray="none" stroke-width="7.35626" fill="none"/></g><g id="g3074" transform="scale(0.999117,1.00088)"><path id="path3076" stroke-linejoin="miter" d="m1724.3,62.835-40.19,0-0.85,9.0584,4.81,8.2076-10.76,141.81-5.94,5.379-1.13,8.211,39.06,20.942,0.85-8.488-3.4-10.19,11.89-157.66,5.1-8.2076,0.56-9.0584z" stroke="#91a6b0" stroke-linecap="butt" stroke-miterlimit="199.112" stroke-dasharray="none" stroke-width="7.35626" fill="none"/></g><g id="g3078" transform="scale(0.999117,1.00088)"><path id="path3080" stroke-linejoin="miter" d="m1874.6,163.04-4.53-7.642,6.51-82.935-0.56,0,0.28-5.659,0-9.0584-0.57-3.9614-0.85-3.9652-1.41-3.6804-1.42-3.6764-1.98-3.3993-2.55-3.3955-2.54-3.1144-3.12-2.8296-3.4-3.1144-3.67-2.2636-4.25-2.5485-4.25-2.2637-4.8-2.2636-5.38-1.9826-7.93-2.5447-8.49-2.2675-9.06-1.9787-9.62-1.4167-10.19-1.1318-10.76-0.85081-11.6-0.56591-11.89-0.281-0.57,7.0758,4.53,0,5.1,0.281,10.47,0.8508,10.47,1.4168,11.61,1.6977,6.79,1.4128,5.95,1.4167,5.94,1.4167,4.81,1.6977,4.25,1.9827,1.69,0.8469,1.7,1.1318,1.7,0.8508,1.42,1.1318,1.41,1.1318,1.13,1.1318,2.55,3.3955,2.26,3.3993,2.27,3.6765,1.7,3.9652,1.13,3.9614,0.57,3.9652,0.56,4.2424,0,4.2462-0.56,11.322-4.25-2.2636-4.53-2.2636-4.53-1.6977-5.09-1.1319-5.1-1.1318-5.66-1.1357-5.37,0-6.23-0.281-5.38,0.281-5.38,0-4.81,0.8508-5.1,0.8508-5.09,1.1319-4.81,1.6977-4.53,1.4128-4.53,1.9826-5.1,2.8295-1.97,1.1319-2.27,1.4167-1.7,1.6977-1.98,1.4167-1.7,1.6977-1.41,1.6978-1.42,1.6977-0.85,1.9826-1.13,1.6977-1.13,1.9826-0.57,1.9788-0.56,1.9826-0.29,2.2636-0.28,2.2675-4.25,57.457-5.94,7.642-0.57,8.773,40.48,0,0.57-8.773-3.97-7.642,4.25-58.027,0.28-1.4128,0.29-1.4167,0.28-1.1318,0.56-1.1318,0.29-1.1318,0.56-1.4168,1.14-0.8469,0.56-1.1318,0.85-0.8508,1.42-1.1318,0.85-1.1318,1.41-0.8508,1.42-0.8469,1.13-0.8508,3.39-1.6978,2.83-1.1318,2.83-1.1318,3.12-0.5659,2.83-0.8508,3.39-0.5659,3.12-0.5659,9.34,0,2.83,0.2849,2.55,0.5659,2.83,0.8469,2.55,0.8508,2.83,1.4128,2.54,1.4167,2.83,1.6978,2.55,1.9826,1.98,1.9826,0.85,0.8469,1.13,1.1318,0.57,0.8508,0.85,1.1319,0.28,0.8469,0.57,1.1357,0.28,0.8469,0.28,1.1318,0,3.3993-0.28,1.1319-3.4,56.325-5.94,7.642-0.85,8.773,40.76,0,0.85-8.773z" stroke="#91a6b0" stroke-linecap="butt" stroke-miterlimit="199.112" stroke-dasharray="none" stroke-width="7.35626" fill="none"/></g><g id="g3082" transform="scale(0.999117,1.00088)"><path id="path3084" stroke-linejoin="round" d="M1771,1246.8,1437.9,1087.5" stroke="#010101" stroke-linecap="butt" stroke-miterlimit="199.112" stroke-dasharray="none" stroke-width="7.07333" fill="none"/></g><g id="g3086" transform="scale(0.999117,1.00088)"><path id="path3088" stroke-linejoin="round" d="M1420.3,1059.4,269.75,571.76" stroke="#010101" stroke-linecap="butt" stroke-miterlimit="199.112" stroke-dasharray="none" stroke-width="7.07333" fill="none"/></g><g id="g3090" transform="scale(0.999117,1.00088)"><path id="path3092" stroke-linejoin="round" d="M28.588,1232.4,535.25,1370.2" stroke="#010101" stroke-linecap="butt" stroke-miterlimit="199.112" stroke-dasharray="none" stroke-width="7.07333" fill="none"/></g><g id="g3094" transform="scale(0.999117,1.00088)"><path id="path3096" stroke-linejoin="round" d="M407.88,1589,517.7,1381" stroke="#010101" stroke-linecap="butt" stroke-miterlimit="199.112" stroke-dasharray="none" stroke-width="7.07333" fill="none"/></g><g id="g3098" transform="scale(0.999117,1.00088)"><path id="path3100" stroke-linejoin="round" d="M641.39,1356.7,991.81,1564.7" stroke="#010101" stroke-linecap="butt" stroke-miterlimit="199.112" stroke-dasharray="none" stroke-width="7.07333" fill="none"/></g><g id="g3102" transform="scale(0.999117,1.00088)"><path id="path3104" stroke-linejoin="round" d="m1197.6,1564.7,322.39-469.86" stroke="#010101" stroke-linecap="butt" stroke-miterlimit="199.112" stroke-dasharray="none" stroke-width="7.07333" fill="none"/></g><g id="g3106" transform="scale(0.999117,1.00088)"><path id="path3108" stroke-linejoin="round" d="M606.01,1391.8,1434.8,1024.1" stroke="#010101" stroke-linecap="butt" stroke-miterlimit="199.112" stroke-dasharray="none" stroke-width="7.07333" fill="none"/></g><g id="g3110" transform="scale(0.999117,1.00088)"><path id="path3112" stroke-linejoin="round" d="M333.43,257.58,187.66,512.32" stroke="#010101" stroke-linecap="butt" stroke-miterlimit="199.112" stroke-dasharray="none" stroke-width="7.07333" fill="none"/></g><g id="g3114" transform="scale(0.999117,1.00088)"><path id="path3116" stroke-linejoin="round" d="M35.664,384.66,230.68,533.27" stroke="#010101" stroke-linecap="butt" stroke-miterlimit="199.112" stroke-dasharray="none" stroke-width="7.07333" fill="none"/></g><path id="path3118" fill-rule="evenodd" fill="#698c78" d="m206.44,480.76-94.738,0,0,171.96,189.48,0,0-171.96-94.739,0"/><g id="g3120" transform="scale(0.999117,1.00088)"><path id="path3122" stroke-linejoin="round" d="m206.34,480.34-94.822,0,0,172.1,189.64,0,0-172.1-94.822,0z" stroke="#010101" stroke-linecap="butt" stroke-miterlimit="199.112" stroke-dasharray="none" stroke-width="7.07333" fill="none"/></g><path id="path3124" fill-rule="evenodd" fill="#397885" d="m1487.5,951.04-94.46,0,0,172.25,189.2,0,0-172.25-94.74,0"/><g id="g3126" transform="scale(0.999117,1.00088)"><path id="path3128" stroke-linejoin="round" d="m1488.8,950.2-94.82,0,0,172.09,189.64,0,0-172.09-94.82,0z" stroke="#010101" stroke-linecap="butt" stroke-miterlimit="199.112" stroke-dasharray="none" stroke-width="7.07333" fill="none"/></g><path id="path3130" fill-rule="evenodd" fill="#f27001" d="m1070.7,1548.8-125.56,0,0,67.43,251.12,0,0-67.43-125.56,0"/><g id="g3132" transform="scale(0.999117,1.00088)"><path id="path3134" stroke-linejoin="round" d="m1071.3,1547.4-125.39,0,0,67.37,251.07,0,0-67.37-125.68,0z" stroke="#010101" stroke-linecap="butt" stroke-miterlimit="199.112" stroke-dasharray="none" stroke-width="7.07333" fill="none"/></g><path id="path3136" fill-rule="evenodd" fill="#c79140" d="m574.37,1307.7-90.777,0,0,140.52,181.84,0,0-140.52-91.063,0"/><g id="g3138" transform="scale(0.999117,1.00088)"><path id="path3140" stroke-linejoin="round" d="m574.88,1306.8-91.143,0,0,140.11,182.29,0,0-140.11-91.143,0z" stroke="#010101" stroke-linecap="butt" stroke-miterlimit="199.112" stroke-dasharray="none" stroke-width="7.07333" fill="none"/></g></g></g></svg>
